<?xml version="1.0" encoding="utf-8"?>
<svg version="1.1" xmlns:xlink="http://www.w3.org/1999/xlink" width="73px" height="61px" xmlns="http://www.w3.org/2000/svg">
  <defs>
    <pattern id="BGPattern" patternUnits="userSpaceOnUse" alignment="0 0" imageRepeat="None" />
    <mask fill="white" id="Clip6">
      <path d="M 0 30.5  C 0 13.419999999999998  16.06 0  36.5 0  C 56.940000000000005 0  73 13.419999999999998  73 30.5  C 73 47.58  56.940000000000005 61  36.5 61  C 16.06 61  0 47.58  0 30.5  Z " fill-rule="evenodd" />
    </mask>
  </defs>
  <g transform="matrix(1 0 0 1 -533 -150 )">
    <path d="M 0 30.5  C 0 13.419999999999998  16.06 0  36.5 0  C 56.940000000000005 0  73 13.419999999999998  73 30.5  C 73 47.58  56.940000000000005 61  36.5 61  C 16.06 61  0 47.58  0 30.5  Z " fill-rule="nonzero" fill="rgba(255, 255, 255, 1)" stroke="none" transform="matrix(1 0 0 1 533 150 )" class="fill" />
    <path d="M 0 30.5  C 0 13.419999999999998  16.06 0  36.5 0  C 56.940000000000005 0  73 13.419999999999998  73 30.5  C 73 47.58  56.940000000000005 61  36.5 61  C 16.06 61  0 47.58  0 30.5  Z " stroke-width="2" stroke-dasharray="0" stroke="rgba(121, 121, 121, 1)" fill="none" transform="matrix(1 0 0 1 533 150 )" class="stroke" mask="url(#Clip6)" />
  </g>
</svg>